HIERARCHY
ROOT Hips
{
	OFFSET 0.000000 0.000000 0.000000
	CHANNELS 6 Xposition Yposition Zposition Xrotation Yrotation Zrotation
	JOINT LeftUpLeg_virtual
	{
		OFFSET 0.000000 0.000000 0.000000
		CHANNELS 3 Xrotation Yrotation Zrotation
		JOINT LeftUpLeg
		{
			OFFSET 11.394100 -6.187798 -0.413800
			CHANNELS 3 Xrotation Yrotation Zrotation
			JOINT LeftLeg
			{
				OFFSET 0.430247 -32.302673 3.732800
				CHANNELS 3 Xrotation Yrotation Zrotation
				JOINT LeftFoot
				{
					OFFSET -0.430247 -48.264931 -6.423300
					CHANNELS 3 Xrotation Yrotation Zrotation
					JOINT LeftToeBase
					{
						OFFSET 4.230900 -16.068199 23.438400
						CHANNELS 3 Xrotation Yrotation Zrotation
						JOINT LeftToe_End
						{
							OFFSET 4.510700 0.695400 19.974600
							CHANNELS 3 Xrotation Yrotation Zrotation
							End Site
							{
								OFFSET 0 0 0
							}
						}
					}
				}
			}
		}
	}
	JOINT RightUpLeg_virtual
	{
		OFFSET 0.000000 0.000000 0.000000
		CHANNELS 3 Xrotation Yrotation Zrotation
		JOINT RightUpLeg
		{
			OFFSET -11.333700 -6.187798 -0.413800
			CHANNELS 3 Xrotation Yrotation Zrotation
			JOINT RightLeg
			{
				OFFSET -0.430392 -32.302628 3.733000
				CHANNELS 3 Xrotation Yrotation Zrotation
				JOINT RightFoot
				{
					OFFSET 0.430392 -48.264973 -6.423500
					CHANNELS 3 Xrotation Yrotation Zrotation
					JOINT RightToeBase
					{
						OFFSET -4.230900 -16.068199 23.438400
						CHANNELS 3 Xrotation Yrotation Zrotation
						JOINT RightToe_End
						{
							OFFSET -4.510700 0.695400 19.974600
							CHANNELS 3 Xrotation Yrotation Zrotation
							End Site
							{
								OFFSET 0 0 0
							}
						}
					}
				}
			}
		}
	}
	JOINT Spine_virtual
	{
		OFFSET 0.000000 0.000000 0.000000
		CHANNELS 3 Xrotation Yrotation Zrotation
		JOINT Spine
		{
			OFFSET -0.002400 12.777504 0.315300
			CHANNELS 3 Xrotation Yrotation Zrotation
			JOINT Spine1
			{
				OFFSET -0.002067 5.816869 0.032633
				CHANNELS 3 Xrotation Yrotation Zrotation
				JOINT Spine1_split
				{
					OFFSET -0.002067 5.816869 0.032633
					CHANNELS 3 Xrotation Yrotation Zrotation
					JOINT Spine2
					{
						OFFSET -0.002067 5.816869 0.032633
						CHANNELS 3 Xrotation Yrotation Zrotation
						JOINT Neck_virtual
						{
							OFFSET 0.000000 0.000000 0.000000
							CHANNELS 3 Xrotation Yrotation Zrotation
							JOINT Neck
							{
								OFFSET -0.003700 21.199493 -0.826900
								CHANNELS 3 Xrotation Yrotation Zrotation
								JOINT Head
								{
									OFFSET 0.000000 20.442200 4.834800
									CHANNELS 3 Xrotation Yrotation Zrotation
									JOINT HeadTop_End
									{
										OFFSET 0.000000 34.668396 4.968400
										CHANNELS 3 Xrotation Yrotation Zrotation
										End Site
										{
											OFFSET 0 0 0
										}
									}
								}
							}
						}
						JOINT LeftShoulder_virtual
						{
							OFFSET 0.000000 0.000000 0.000000
							CHANNELS 3 Xrotation Yrotation Zrotation
							JOINT LeftShoulder
							{
								OFFSET 3.288150 8.794197 -1.372250
								CHANNELS 3 Xrotation Yrotation Zrotation
								JOINT LeftShoulder_split
								{
									OFFSET 3.288150 8.794197 -1.372250
									CHANNELS 3 Xrotation Yrotation Zrotation
									JOINT LeftArm
									{
										OFFSET 11.953299 -2.279007 -0.146200
										CHANNELS 3 Xrotation Yrotation Zrotation
										JOINT LeftForeArm
										{
											OFFSET 18.448900 0.000000 0.000000
											CHANNELS 3 Xrotation Yrotation Zrotation
											JOINT LeftHand
											{
												OFFSET 29.527798 0.000000 0.000000
												CHANNELS 3 Xrotation Yrotation Zrotation
												End Site
												{
													OFFSET 0 0 0
												}
											}
										}
									}
								}
							}
						}
						JOINT RightShoulder_virtual
						{
							OFFSET 0.000000 0.000000 0.000000
							CHANNELS 3 Xrotation Yrotation Zrotation
							JOINT RightShoulder
							{
								OFFSET -3.249400 8.794197 -1.372250
								CHANNELS 3 Xrotation Yrotation Zrotation
								JOINT RightShoulder_split
								{
									OFFSET -3.249400 8.794197 -1.372250
									CHANNELS 3 Xrotation Yrotation Zrotation
									JOINT RightArm
									{
										OFFSET -11.953299 -2.279007 -0.146200
										CHANNELS 3 Xrotation Yrotation Zrotation
										JOINT RightForeArm
										{
											OFFSET -18.448900 0.000000 0.000000
											CHANNELS 3 Xrotation Yrotation Zrotation
											JOINT RightHand
											{
												OFFSET -29.527802 0.000000 0.000000
												CHANNELS 3 Xrotation Yrotation Zrotation
												End Site
												{
													OFFSET 0 0 0
												}
											}
										}
									}
								}
							}
						}
					}
				}
			}
		}
	}
}
MOTION
Frames: 6
Frame Time: 0.03333333
-1.209038 103.646835 10.379835 0.000000 0.000000 0.000000 -17.291233 -16.208584 -3.230149 -86.642657 15.495947 36.966787 109.155855 -10.982164 -2.378138 -36.021441 -11.875683 29.420114 -48.499466 -2.535418 -7.080743 0.000000 0.000000 0.000000 -16.947275 -20.746862 -3.842412 -125.997210 -7.162588 -23.206051 119.081917 8.514004 -2.035979 -0.007050 -5.404520 -0.541557 -45.877073 7.022277 11.559134 0.000000 0.000000 0.000000 -12.776004 -18.275573 -3.864853 5.235082 6.891027 -1.653116 13.431989 0.705190 -1.188860 -0.397221 -9.747137 1.616693 0.000000 0.000000 0.000000 19.215392 0.354667 -0.259495 -24.595912 0.271267 -3.524526 -9.478231 8.646777 3.251396 0.000000 0.000000 0.000000 14.731639 0.622086 -0.723825 0.733267 -2.595795 36.304682 1.240657 -2.178215 -0.911145 -46.722554 -30.373954 -7.765031 -18.001930 -38.082997 0.617455 0.000000 0.000000 0.000000 15.301277 0.055281 -0.743062 10.616210 18.184250 -37.468567 5.596489 4.055368 -0.885600 -53.473162 23.290899 10.228603 -16.825785 37.403099 7.108277 0.000000 0.000000 0.000000 
-1.558496 102.677849 9.961629 0.000000 0.000000 0.000000 -18.779434 -16.440776 -3.211114 -89.110480 14.843089 36.563406 110.744257 -11.053400 -1.910381 -34.368235 -11.243595 28.064716 -50.086856 -2.958785 -6.397206 0.000000 0.000000 0.000000 -18.737878 -20.067736 -3.965330 -125.556840 -7.041370 -23.576780 119.784962 8.194982 -1.599031 -0.374932 -5.097763 0.806868 -48.899264 6.609761 11.859332 0.000000 0.000000 0.000000 -14.729552 -17.757063 -4.021909 5.625052 6.481555 -1.414113 13.412335 0.684198 -1.026543 0.671770 -7.000026 2.572809 0.000000 0.000000 0.000000 18.853986 0.246412 -0.121717 -23.767491 0.434272 -3.126884 -9.229739 9.550540 3.302578 0.000000 0.000000 0.000000 14.936702 0.523744 -0.346405 0.647139 -2.682161 36.852132 -0.818845 -1.644457 0.514235 -49.448159 -29.767491 -6.905333 -18.066914 -36.007388 1.606037 0.000000 0.000000 0.000000 14.776792 -0.138830 -0.748332 10.648180 19.418849 -37.285695 5.446684 0.541107 -0.442658 -56.273024 21.519611 11.162773 -19.321094 40.110989 8.836547 0.000000 0.000000 0.000000 
-1.940560 101.907806 9.428521 0.000000 0.000000 0.000000 -20.501762 -16.193472 -3.008606 -91.322559 14.333719 35.963644 112.284000 -11.026655 -0.797539 -31.006723 -10.334552 25.831261 -53.148782 -3.490888 -5.790407 0.000000 0.000000 0.000000 -21.049441 -18.714498 -3.824385 -123.840250 -6.409407 -24.161559 120.544752 7.645367 -1.511014 -0.429374 -4.176698 1.244595 -50.137769 6.125550 13.004246 0.000000 0.000000 0.000000 -17.024892 -16.939648 -4.413412 6.174844 5.702154 -1.196925 12.946513 0.497585 -0.660661 4.169893 -4.880004 3.081310 0.000000 0.000000 0.000000 17.763888 0.100129 0.113758 -23.329262 0.482576 -2.080262 -9.301055 10.146456 2.799281 0.000000 0.000000 0.000000 14.096343 0.329770 0.142530 0.751670 -3.169860 37.911392 -1.304005 -1.844329 1.609814 -53.598755 -27.624869 -8.667653 -17.963874 -36.075919 2.547686 0.000000 0.000000 0.000000 13.387434 -0.395922 -0.528724 10.277826 20.622831 -36.780248 5.253273 -2.395955 0.641328 -57.241838 20.340425 11.210445 -22.367423 42.523716 9.953019 0.000000 0.000000 0.000000 
-1.983407 101.851845 8.730829 0.000000 0.000000 0.000000 -22.485258 -15.471659 -2.689815 -92.124137 14.359376 35.421047 112.373797 -10.629065 0.079945 -27.500485 -9.193637 23.645541 -55.463393 -3.674634 -6.035305 0.000000 0.000000 0.000000 -23.469196 -16.744571 -3.512240 -120.087976 -5.745667 -24.731475 120.227667 6.865295 -1.685556 -0.708605 -2.964138 0.221222 -50.743087 5.693628 14.673876 0.000000 0.000000 0.000000 -19.490129 -16.153389 -4.959158 7.080119 4.774433 -0.957767 12.454453 0.226771 -0.225145 6.329007 -1.891742 2.254572 0.000000 0.000000 0.000000 16.423945 -0.037171 0.363071 -23.520919 0.258415 -0.607936 -9.661422 10.410105 1.845381 0.000000 0.000000 0.000000 13.012131 0.063928 0.647929 1.051946 -3.919314 38.845721 -0.761522 -2.154082 2.470159 -57.768470 -24.340955 -12.524961 -17.765284 -37.195052 3.433219 0.000000 0.000000 0.000000 11.869409 -0.619056 -0.119332 9.799208 21.760872 -36.228399 4.730999 -3.310246 1.479300 -56.275742 19.907997 11.470597 -24.819072 44.712464 9.885208 0.000000 0.000000 0.000000 
-1.767858 102.725815 7.609558 0.000000 0.000000 0.000000 -25.199971 -14.673369 -2.500185 -90.878351 14.592561 34.664276 110.686808 -10.224009 0.738551 -23.776855 -7.545049 21.035697 -56.936781 -3.399119 -6.916519 0.000000 0.000000 0.000000 -26.277763 -14.612843 -3.285477 -114.020343 -5.657276 -25.170576 118.725162 5.856594 -1.850536 -0.182484 -1.901517 -1.819244 -52.180654 5.322956 16.645897 0.000000 0.000000 0.000000 -22.145507 -15.396539 -5.408341 8.409916 3.999322 -0.706214 12.414045 -0.092826 0.183335 7.040983 0.465251 1.235691 0.000000 0.000000 0.000000 15.597770 -0.167706 0.599259 -24.203115 -0.382535 0.912896 -9.656465 10.403997 0.621652 0.000000 0.000000 0.000000 12.388430 -0.196486 1.029747 1.412610 -4.625791 39.133460 0.583071 -2.187196 3.184663 -61.353793 -20.450946 -17.601478 -17.670890 -37.776806 4.358005 0.000000 0.000000 0.000000 11.047955 -0.765980 0.405135 9.287848 22.736604 -35.968985 4.205928 -2.165597 2.058314 -54.277488 20.042171 12.431113 -25.670825 46.180272 8.111514 0.000000 0.000000 0.000000 
-1.219350 104.658043 6.168837 0.000000 0.000000 0.000000 -28.594184 -13.907300 -2.578078 -87.899501 14.744703 33.883640 107.334312 -10.248013 1.635850 -18.842508 -5.654129 17.310836 -59.881532 -2.940971 -7.625209 0.000000 0.000000 0.000000 -29.245357 -12.847728 -3.236635 -106.346728 -6.346091 -25.557974 116.195506 4.877466 -2.096137 2.525279 -1.246811 -3.381222 -56.669991 4.669507 18.457905 0.000000 0.000000 0.000000 -25.352983 -14.613164 -5.564772 10.151661 3.703919 -0.442592 13.319595 -0.379491 0.382332 6.413804 1.526529 0.094490 0.000000 0.000000 0.000000 16.125115 -0.318394 0.684313 -24.840196 -1.324463 2.063890 -8.539388 10.710987 -0.475271 0.000000 0.000000 0.000000 13.039751 -0.425646 1.142513 1.667770 -5.014288 38.293548 1.679537 -1.004195 3.423437 -63.955521 -17.048830 -22.642936 -17.732672 -37.469267 5.442622 0.000000 0.000000 0.000000 11.708775 -0.846449 0.879889 8.785175 23.747005 -36.155446 3.010332 -0.177126 2.214186 -52.447312 20.462605 14.321947 -24.326837 46.528434 4.445721 0.000000 0.000000 0.000000 
